<svg width="67" height="61" viewBox="0 0 67 61" fill="none" xmlns="http://www.w3.org/2000/svg">
<path d="M9.03226 21.0331C1.02772 -13.1504 43.3375 4.24656 46.1962 5.77262C49.055 7.29868 78.7861 16.7602 60.49 36.2937C37.6199 60.7105 19.0379 63.7626 9.03226 21.0331Z" fill="#FFFEBB"/>
<path d="M47.7879 50.5771L47.4149 50.2441C47.286 50.3885 47.252 50.5944 47.3278 50.7727L47.7879 50.5771ZM38.5343 57.2943L38.6343 56.8044C38.5332 56.7838 38.4282 56.7949 38.3337 56.8363L38.5343 57.2943ZM51.7927 60.0001L51.6927 60.49C51.8747 60.5272 52.0623 60.4603 52.1799 60.3165C52.2974 60.1727 52.3255 59.9755 52.2529 59.8045L51.7927 60.0001ZM54.0877 32.7399C54.0877 39.4626 51.5655 45.5949 47.4149 50.2441L48.1609 50.9101C52.4687 46.0847 55.0877 39.7176 55.0877 32.7399H54.0877ZM27.7939 6.44604C42.3156 6.44604 54.0877 18.2182 54.0877 32.7399H55.0877C55.0877 17.6659 42.8679 5.44604 27.7939 5.44604V6.44604ZM1.5 32.7399C1.5 18.2182 13.2722 6.44604 27.7939 6.44604V5.44604C12.7199 5.44604 0.5 17.6659 0.5 32.7399H1.5ZM27.7939 59.0338C13.2722 59.0338 1.5 47.2616 1.5 32.7399H0.5C0.5 47.8139 12.7199 60.0338 27.7939 60.0338V59.0338ZM38.3337 56.8363C35.1076 58.2494 31.543 59.0338 27.7939 59.0338V60.0338C31.6837 60.0338 35.3848 59.2198 38.7349 57.7523L38.3337 56.8363ZM51.8927 59.5102L38.6343 56.8044L38.4343 57.7842L51.6927 60.49L51.8927 59.5102ZM47.3278 50.7727L51.3325 60.1957L52.2529 59.8045L48.2481 50.3815L47.3278 50.7727Z" fill="#070707"/>
<path d="M17.3086 32.0412L24.7643 39.4969L38.5107 26.4495" stroke="#070707"/>
</svg>
