<svg width="30" height="30" viewBox="0 0 30 30" fill="none" xmlns="http://www.w3.org/2000/svg">
<path d="M10.4461 17.3086L4.65001 16.7906C4.65001 16.7906 4.62891 17.4586 4.62891 18.089C4.62891 18.8156 4.77188 19.4086 4.77188 19.4086C4.77188 19.4086 1.23985 20.2781 0.942196 22.9828C0.64454 25.6875 5.95782 29.1539 13.943 29.0531C21.9281 28.9523 26.8102 25.8515 27.075 23.0156C27.3399 20.1797 22.8188 19.5187 22.8188 19.5187L23.0156 18C23.0156 18 27.7336 17.7351 27.9656 15.3937C28.1977 13.0523 25.9195 13.2492 25.9195 13.2492C25.9195 13.2492 26.6789 14.0414 26.6461 14.6672C26.6133 15.2929 26.1844 15.9867 25.0945 16.2844C24.0047 16.582 22.4555 16.7461 22.4555 16.7461L10.4461 17.3086Z" fill="#BBCED3"/>
<path d="M23.8408 12.2602L22.751 12.9867L22.8822 13.4812C22.8822 13.4812 25.0268 13.2844 25.8846 13.6125C26.7424 13.943 27.5674 15.3281 27.5674 15.3281L28.5893 13.943L24.9916 11.9297L23.8408 12.2602Z" fill="#6AA5AC"/>
<path d="M9.42202 22.3126C9.42202 22.3126 6.67749 21.6142 6.43139 22.2025C6.25561 22.6197 7.42749 23.8853 8.25717 24.5345C9.07045 25.172 11.1119 26.3603 13.7345 26.3603C16.5939 26.3603 18.4197 25.3056 19.4978 24.49C20.4165 23.7962 21.3447 22.2892 21.1267 22.0478C20.904 21.8064 9.42202 22.3126 9.42202 22.3126Z" fill="#6AA5AC"/>
<path d="M4.92421 20.2546C4.92421 20.2546 1.92655 21.1617 1.98749 23.0156C2.05311 25.0382 5.94608 27.921 14.0203 27.8999C22.0922 27.8789 25.8773 24.4898 26.0742 22.6875C26.2711 20.8828 22.6219 20.3109 22.6219 20.3109C22.6219 20.3109 21.6094 26.1187 13.9969 26.2499C6.6703 26.3765 4.92421 20.2546 4.92421 20.2546Z" fill="#E0E0E0"/>
<path d="M22.6432 11.2266C22.6432 11.2266 24.6119 11.0602 25.6572 11.1821C26.9768 11.3368 29.0439 12.3258 29.0018 14.6789C28.9596 17.0321 26.801 18.1313 25.4814 18.5719C24.5229 18.8907 22.1158 18.9891 22.1158 18.9891L22.3572 17.5383C22.3572 17.5383 24.3799 17.5383 25.3924 17.1633C26.4049 16.7883 27.3939 15.9305 27.415 14.6555C27.4408 13.1977 25.7439 12.7641 24.49 12.7852C23.2361 12.8063 22.0479 13.0922 22.0479 13.0922L22.6432 11.2266Z" fill="#E0E0E0"/>
<path d="M13.7108 6.81559C7.67333 6.96793 4.37333 9.58825 4.2749 11.4679C4.17646 13.3476 4.67333 18.5672 5.36474 20.3109C6.12411 22.2257 8.30146 25.4906 14.2077 25.2609C20.114 25.0312 21.7968 21.7312 22.2913 19.6851C22.6522 18.1922 23.414 12.6 23.2147 11.1726C23.0155 9.75231 20.278 6.65153 13.7108 6.81559Z" fill="#E0E0E0"/>
<path d="M22.6432 21.1899C22.6619 21.4876 23.4986 21.6727 23.3041 22.5985C23.0838 23.6321 22.0947 23.8079 22.1158 24.204C22.1416 24.6704 24.6236 24.3141 24.7338 22.7087C24.8416 21.1032 22.6197 20.8618 22.6432 21.1899Z" fill="white"/>
<path d="M4.82571 21.4993C5.08821 21.729 4.58665 22.0337 4.40852 22.5118C4.14368 23.215 5.17727 24.3165 6.43118 24.9306C7.31477 25.3642 8.61555 25.7509 8.58743 26.1634C8.5429 26.7798 2.71399 25.1978 2.71399 23.1283C2.71399 21.3658 4.4718 21.19 4.82571 21.4993Z" fill="white"/>
<path d="M5.50765 14.7446C5.16312 15.1383 5.27327 17.9016 5.88265 19.65C6.40999 21.1688 7.00531 22.0688 7.59827 22.0922C8.19124 22.1133 7.22327 19.6289 7.26781 18.0235C7.31234 16.418 7.26781 15.9774 6.93734 15.6047C6.60687 15.2297 5.81468 14.393 5.50765 14.7446Z" fill="white"/>
<path d="M13.8867 8.45393C9.86252 8.51018 5.63908 10.1696 5.7258 12.3258C5.81486 14.4821 10.0149 15.6258 14.0625 15.6469C18.1102 15.668 21.7828 13.9969 21.8063 12.2157C21.8274 10.4344 18.6164 8.38831 13.8867 8.45393Z" fill="#6D4B41"/>
<path d="M6.73828 11.8852C6.73828 12.5884 7.72734 12.8626 8.38828 12.8977C9.225 12.9423 9.83906 12.6774 9.90703 12.2602C9.97266 11.843 9.57656 11.468 10.1273 11.1376C10.6781 10.8071 11.3461 10.997 12.1734 11.2477C13.1203 11.5337 14.6156 12.5227 15.4289 12.1266C16.2422 11.7305 15.3633 11.0485 15.7359 10.7837C16.1086 10.5188 16.9453 10.5188 18.1125 10.9384C19.2773 11.3555 20.3344 12.0821 20.7305 11.7751C21.1266 11.468 19.7953 10.0454 16.7273 9.50867C13.9547 9.02586 10.8844 9.34227 9.24844 9.92586C7.70625 10.479 6.73828 11.2712 6.73828 11.8852Z" fill="#B59075"/>
<path d="M16.5048 12.8765C15.1407 13.4039 12.8532 11.9742 11.5548 12.1289C10.8727 12.2109 10.6759 12.9867 11.3134 13.2515C11.9509 13.5164 12.0516 13.0242 12.8532 13.3172C13.9032 13.7039 16.0852 14.1258 16.8352 13.8445C17.8712 13.4554 17.7376 12.9211 18.1337 12.8554C18.7899 12.7453 19.4462 13.4601 19.8048 13.0523C20.1352 12.6773 19.8001 12.2367 18.7055 11.8429C17.8477 11.5359 17.1821 11.4586 16.9899 11.7117C16.7696 11.9953 17.1727 12.6164 16.5048 12.8765Z" fill="#B59074"/>
<path opacity="0.4" d="M19.4295 0.822729C19.2279 1.34539 20.2873 1.81179 19.6053 2.77976C19.0381 3.58367 14.3553 2.56179 12.4123 4.9571C10.7178 7.04773 12.1053 9.2696 12.5014 9.90711C12.8975 10.5446 13.7764 11.5571 14.4373 11.3813C15.0982 11.2055 14.0857 8.80789 15.9326 7.59851C17.7795 6.38914 20.3857 6.37273 21.5412 4.87039C22.4201 3.72664 21.8717 2.0321 21.035 1.17429C20.4279 0.54851 19.6498 0.24851 19.4295 0.822729Z" fill="#B8CED4"/>
</svg>
